HIERARCHY
ROOT pelvis
{
  OFFSET 0 100 0
  CHANNELS 6 Xposition Yposition Zposition Zrotation Xrotation Yrotation
  JOINT pelvis_right_femur
  {
    OFFSET -10.78128 -3.44521 -0.5502486
    CHANNELS 3 Zrotation Xrotation Yrotation
    JOINT right_femur_tibia
    {
      OFFSET -0.8047443 -44.0398 -0.1307829
      CHANNELS 3 Zrotation Xrotation Yrotation
      JOINT right_tibia_foot
      {
        OFFSET 3.006224 -47.83518 -5
        CHANNELS 3 Zrotation Xrotation Yrotation
        End Site
        {
          OFFSET 0 -5 15
        }
      }
    }
  }
  JOINT pelvis_left_femur
  {
    OFFSET 10.78128 -3.44521 -0.5502486
    CHANNELS 3 Zrotation Xrotation Yrotation
    JOINT left_femur_tibia
    {
      OFFSET 0.8047443 -44.0398 -0.1307829
      CHANNELS 3 Zrotation Xrotation Yrotation
      JOINT left_tibia_foot
      {
        OFFSET -4.370144 -48.10324 -4.275266
        CHANNELS 3 Zrotation Xrotation Yrotation
        End Site
        {
          OFFSET 0 -5 15
        }
      }
    }
  }
  JOINT pelvis_spine1
  {
    OFFSET 0 6.468898 -3.129235
    CHANNELS 3 Zrotation Xrotation Yrotation
    JOINT spine1
    {
      OFFSET 0 23.15396 4.99043
      CHANNELS 3 Zrotation Xrotation Yrotation
      JOINT spine2
      {
        OFFSET 0 20.79997 -5.064912
        CHANNELS 3 Zrotation Xrotation Yrotation
        JOINT neck
        {
          OFFSET 0 14.38658 9.616178
          CHANNELS 3 Zrotation Xrotation Yrotation
          End Site
          {
            OFFSET 0 20 0
          }
        }
      }
      JOINT right_manubrium
      {
        OFFSET -5.722621 16.35077 3.967754
        CHANNELS 3 Zrotation Xrotation Yrotation
        JOINT right_clavicle
        {
          OFFSET -13.16364 1.694482 -4.693211
          CHANNELS 3 Zrotation Xrotation Yrotation
          JOINT right_humerus
          {
            OFFSET -28.5034 -0.3100689 -2.792744
            CHANNELS 3 Zrotation Xrotation Yrotation
            JOINT right_radius
            {
              OFFSET -25.15693 0.02248979 -1.271978
              CHANNELS 3 Zrotation Xrotation Yrotation
              End Site
              {
                OFFSET -15 0 0
              }
            }
          }
        }
      }
      JOINT left_manubrium
      {
        OFFSET 5.722621 16.35077 3.967754
        CHANNELS 3 Zrotation Xrotation Yrotation
        JOINT left_clavicle
        {
          OFFSET 13.16364 1.694482 -4.693211
          CHANNELS 3 Zrotation Xrotation Yrotation
          JOINT left_humerus
          {
            OFFSET 29.39168 -1.063119 -2.237045
            CHANNELS 3 Zrotation Xrotation Yrotation
            JOINT left_radius
            {
              OFFSET 24.59957 -0.9528479 0.9047498
              CHANNELS 3 Zrotation Xrotation Yrotation
              End Site
              {
                OFFSET 15 -0 -0
              }
            }
          }
        }
      }
    }
  }
}
MOTION
Frames: 23
Frame Time: 0.0416666666667
1310.61 101.8071 2789.922 3.481773 -3.517829 38.26177 3.35894 15.8146 4.796679 -0 14.03917 -0 0.8229963 -16.02836 -0.8965075 2.434503 -28.03021 -2.102898 -0 22.48147 -0 -5.113042 -6.436888 19.40531 -1.230043 0.6821228 8.154386 -0.3759538 9.770486 -3.408269 1.540818 22.05509 4.948449 2.481699 -16.50164 5.600766 2.792683 -21.26125 11.97311 77.39919 26.54209 -3.905694 -0 0 24.16311 -23.80843 10.81907 14.79145 4.491411 -16.35561 -2.496436 -92.5816 22.35158 23.51102 0 0 -12.11053 -0.5662957 7.13828 13.78478
1315.519 100.8992 2794.475 3.186324 -2.842298 37.6778 2.289283 17.21504 4.713498 -0 18.06367 -0 1.468257 -14.40478 -0.3066479 1.390804 -28.04964 -3.049639 -0 19.55381 -0 -4.183746 -6.378929 19.17657 -1.770098 -0.0182998 8.418412 -0.4872253 9.67334 -3.384131 1.552519 21.74778 5.084949 2.647714 -16.85172 5.672883 3.021785 -21.36835 11.86447 76.96134 27.00375 -3.363486 -0 0 24.63296 -24.56352 10.69139 15.42236 4.147091 -15.86027 -2.488267 -92.84414 22.21625 24.68684 0 0 -10.65263 -0.724881 6.994366 14.10824
1320.767 100.4186 2799.233 3.421585 -2.299899 37.34669 1.03706 17.56953 4.773306 -0 24.38199 -0 2.023599 -10.92034 -0.2528011 -0.3672427 -26.56495 -4.398856 -0 19.48663 -0 -3.396663 -6.695106 18.69951 -2.549647 -0.7037745 8.67395 -0.628911 9.780765 -3.395148 1.61466 21.46695 5.171904 2.808106 -17.30479 5.755186 3.319384 -21.17834 11.79612 77.42448 27.36629 -3.845551 -0 0 24.26063 -25.02911 10.64881 15.67225 3.727124 -15.49767 -2.590502 -92.84693 22.09938 25.53897 0 0 -9.661665 -0.9822313 6.644725 14.55661
1326.212 100.4814 2804.11 4.070862 -2.135766 37.40753 0.004122105 16.60916 4.867441 -0 32.49013 -0 2.501797 -6.708869 -0.8297706 -2.253942 -23.76184 -5.706861 -0 20.96843 -0 -2.937744 -7.395586 18.14366 -3.264806 -1.143289 8.700317 -0.8124306 10.01511 -3.448723 1.67396 21.28811 5.225834 2.874386 -17.62771 5.858396 3.625364 -20.75332 11.75987 78.60337 27.42508 -5.038702 -0 0 23.31857 -25.12691 10.72966 15.53351 3.360168 -15.26378 -2.799772 -92.56979 22.0651 25.80758 0 0 -9.145218 -1.256859 6.183625 15.03648
1331.654 101.0738 2808.962 4.942654 -2.496712 37.93524 -0.5405059 14.2334 4.865663 -0 41.09491 -0 2.872925 -3.09098 -1.995475 -3.796768 -19.84851 -6.699089 -0 22.6274 -0 -2.859745 -8.361564 17.66123 -3.671649 -1.180706 8.310818 -0.9981969 10.25638 -3.576511 1.728151 21.32055 5.250463 2.781408 -17.56987 6.020388 3.821341 -20.11461 11.68738 80.21588 27.05463 -6.5537 -0 0 22.02179 -24.85305 10.89468 15.05967 3.14483 -15.17623 -3.107906 -91.9432 22.18719 25.13335 0 0 -9.042638 -1.428941 5.79051 15.37463
1336.903 102.0684 2813.64 5.827491 -3.261188 38.89139 -0.6136259 10.48458 4.704108 -0 48.5626 -0 3.014879 -0.8256847 -3.521251 -4.808639 -15.08503 -7.340934 -0 23.49571 -0 -3.004006 -9.487237 17.27218 -3.729868 -0.851455 7.479757 -1.108995 10.42527 -3.844707 1.781433 21.59208 5.262741 2.545439 -17.09301 6.256832 3.839348 -19.29483 11.52729 81.9776 26.41916 -8.164758 -0 0 20.46774 -24.28096 11.08465 14.36259 3.108675 -15.32118 -3.495445 -90.87743 22.48126 23.34946 0 0 -9.47149 -1.395707 5.625648 15.41964
1341.838 103.2544 2818.039 6.530176 -4.110601 40.13528 -0.4157715 5.528782 4.404831 -0 53.51765 -0 2.805569 0.01553143 -5.087942 -5.335738 -9.80204 -7.755315 -0 23.08972 -0 -3.133331 -10.76728 16.89871 -3.559326 -0.3373873 6.347054 -1.067811 10.50361 -4.322858 1.811117 22.00519 5.303929 2.254207 -16.40729 6.54145 3.715774 -18.38365 11.29213 83.66678 25.87241 -9.860219 -0 0 18.73006 -23.51619 11.2722 13.57518 3.231661 -15.79997 -3.922928 -89.3823 22.89238 20.6437 0 0 -10.65563 -1.141504 5.750075 15.14722
1346.408 104.3727 2822.115 6.903939 -4.738913 41.47956 -0.1531135 -0.3394753 4.026647 -0 55.11392 -0 2.228167 -0.2981637 -6.442348 -5.515942 -4.359232 -8.108838 -0 21.33641 -0 -3.102528 -12.27029 16.46799 -3.318967 0.1706974 5.123724 -0.8281033 10.48834 -5.030312 1.791625 22.41132 5.40669 2.002251 -15.80463 6.828738 3.529157 -17.50096 11.02861 85.14747 25.67923 -11.70652 -0 0 16.93574 -22.64403 11.44617 12.80106 3.486285 -16.63227 -4.332792 -87.61909 23.35025 17.44313 0 0 -12.67888 -0.7573445 6.141145 14.66537
1350.622 105.1632 2825.888 6.875223 -4.970354 42.7444 0.04527833 -6.69086 3.604324 -0 53.00273 -0 1.379955 -1.434724 -7.456268 -5.483872 0.8978374 -8.526616 -0 18.53831 -0 -2.915976 -14.05522 15.9539 -3.135527 0.5545852 4.003771 -0.3814474 10.35072 -5.910225 1.728967 22.69616 5.561114 1.843943 -15.50905 7.081506 3.330982 -16.73582 10.7721 86.35322 25.87567 -13.71018 -0 0 15.23884 -21.71644 11.5818 12.09422 3.850538 -17.71413 -4.659343 -85.84214 23.82176 14.21201 0 0 -15.35455 -0.3903019 6.743907 14.13361
1354.543 105.4277 2829.441 6.457957 -4.763606 43.799 0.124759 -12.95824 3.115333 -0 47.37404 -0 0.4357545 -2.990181 -8.096352 -5.347864 5.640881 -9.021606 -0 15.38226 -0 -2.702622 -16.07563 15.34396 -3.081544 0.7764293 3.122299 0.2369114 10.05234 -6.836155 1.663269 22.80781 5.717448 1.78981 -15.62416 7.2794 3.136895 -16.10775 10.53642 87.25888 26.30336 -15.76545 -0 0 13.74392 -20.79176 11.65005 11.48044 4.299041 -18.84854 -4.84942 -84.299 24.28639 11.31898 0 0 -18.25621 -0.1483427 7.470724 13.65776
1358.294 105.0937 2832.913 5.767536 -4.196833 44.60009 0.08458336 -18.50521 2.495475 -0 39.1683 -0 -0.386604 -4.370171 -8.394281 -5.197508 9.587885 -9.431568 -0 12.83258 -0 -2.660122 -18.10951 14.58972 -3.156437 0.8617201 2.535712 0.9334219 9.613087 -7.650259 1.639206 22.74277 5.823322 1.823838 -16.11479 7.413349 2.94434 -15.56807 10.32973 87.89252 26.71172 -17.69271 -0 0 12.43697 -19.99624 11.66263 10.99199 4.796574 -19.84223 -4.897554 -83.11444 24.6367 8.940696 0 0 -20.90148 0.006548167 8.144329 13.19983
1362.058 104.2378 2836.494 5.009515 -3.451549 45.20773 -0.03028171 -22.82151 1.728404 -0 30.06762 -0 -0.8819205 -4.886339 -8.461649 -5.103414 12.61895 -9.452589 -0 11.73801 -0 -2.96328 -19.79689 13.62674 -3.276913 0.8639917 2.223048 1.558081 9.162246 -8.238181 1.669421 22.51964 5.865101 1.918457 -16.80238 7.478996 2.733094 -15.04251 10.16303 88.3948 26.88087 -19.36381 -0 0 11.18239 -19.51923 11.70084 10.66171 5.31497 -20.63729 -4.860012 -82.19808 24.61769 6.988002 0 0 -23.06633 0.2903271 8.479723 12.57455
1366.039 103.0411 2840.387 4.395274 -2.74776 45.74088 -0.1070326 -25.71126 0.9794551 -0 21.90157 -0 -0.9691423 -4.206141 -8.505225 -5.089123 14.9068 -8.888359 -0 12.40067 -0 -3.664325 -20.79833 12.50706 -3.314799 0.8012011 2.11359 1.962018 8.864224 -8.588492 1.734839 22.17797 5.86173 2.035942 -17.43252 7.481088 2.460824 -14.47954 10.02968 89.01225 26.73705 -20.81124 -0 0 9.825092 -19.42784 11.85355 10.42741 5.853565 -21.33156 -4.79366 -81.33089 24.00432 5.198002 0 0 -24.92441 0.9359223 8.252825 11.61566
1370.371 101.731 2844.751 3.999288 -2.251599 46.28588 0.09888978 -27.23676 0.6471184 -0 15.92607 -0 -0.8107861 -2.756167 -8.724215 -5.083268 16.85356 -7.978223 -0 14.73151 -0 -4.685681 -20.87811 11.50806 -3.156567 0.6119395 2.103237 2.097523 8.750113 -8.760186 1.828231 21.81141 5.808648 2.128147 -17.84108 7.446661 2.11749 -13.85822 9.891538 89.90845 26.40677 -22.15349 -0 0 8.330583 -19.39613 12.09786 10.02238 6.395912 -21.97964 -4.665356 -80.47638 22.98829 3.481532 0 0 -26.65192 1.929115 7.607633 10.40686
1375.048 100.5738 2849.633 3.698601 -2.055707 46.82579 0.9496079 -27.46736 1.20694 -0 12.73051 -0 -0.7501227 -1.505808 -9.116922 -4.901789 18.6865 -7.36814 -0 18.82201 -0 -5.88282 -19.80493 11.04096 -2.729693 0.2105493 2.07478 2.066793 8.711547 -8.810185 1.961399 21.54293 5.670634 2.163341 -18.08339 7.414371 1.834733 -13.21622 9.739712 90.93278 26.1781 -23.38538 -0 0 6.875701 -18.81421 12.30472 9.119152 6.821073 -22.41517 -4.381955 -79.94847 22.24654 2.22914 0 0 -27.90748 2.95693 7.08344 9.3059
1379.921 99.855 2854.926 3.331811 -2.230576 47.23105 2.611598 -26.3761 2.800106 -0 12.4208 -0 -0.9731585 -1.25123 -9.440595 -4.351524 19.95991 -7.547099 -0 24.91891 -0 -7.05705 -17.39094 11.36621 -2.034796 -0.3542028 1.992207 2.050265 8.72533 -8.776335 2.103742 21.41168 5.464316 2.165003 -18.33294 7.38537 1.889055 -12.72888 9.683589 91.61556 26.32094 -24.26031 -0 0 5.844527 -17.48678 12.39962 7.807155 6.903765 -22.39474 -3.966462 -80.16265 22.32339 2.159809 0 0 -28.00878 3.627496 7.123247 8.732727
1384.797 99.78056 2860.392 2.968101 -2.807885 47.31708 4.64416 -23.97797 4.833754 -0 14.30985 -0 -1.287843 -2.083758 -9.402514 -3.514468 19.6519 -8.231364 -0 32.8723 -0 -8.019327 -13.91408 12.28776 -1.212558 -0.7892377 1.996203 2.156747 8.933805 -8.658621 2.177368 21.36734 5.286211 2.196783 -18.6204 7.305759 2.452067 -12.6278 9.885838 91.49006 26.77636 -24.40242 -0 0 5.586566 -16.09702 12.45354 6.775503 6.475175 -21.89047 -3.64118 -81.25047 23.00892 3.659513 0 0 -26.68735 3.701459 7.589452 8.930556
1389.556 100.3805 2865.768 2.939069 -3.654391 46.96829 6.183247 -20.35733 6.320008 -0 16.73252 -0 -1.476073 -3.504362 -8.909868 -2.841068 17.0459 -8.580723 -0 41.96865 -0 -8.705724 -10.38031 13.27864 -0.5422827 -0.7564973 2.346072 2.312334 9.385347 -8.36923 2.175139 21.43704 5.183777 2.284071 -18.7799 7.139759 3.28269 -12.94879 10.33316 90.57084 27.1128 -23.64292 -0 0 6.073492 -15.50097 12.51035 6.600785 5.638987 -21.13749 -3.586697 -82.91075 23.69081 6.215245 0 0 -24.45617 3.183551 7.951166 9.819608
1394.15 101.4943 2870.89 3.488497 -4.472043 46.24797 6.704057 -15.56579 6.821775 -0 18.04351 -0 -1.640498 -4.983733 -8.138367 -2.620595 12.2391 -8.207968 -0 50.81898 -0 -9.112428 -7.850242 14.09115 -0.2801525 -0.2423612 3.184966 2.325617 9.903895 -7.788684 2.194384 21.73488 5.07319 2.381426 -18.67215 6.919617 3.869621 -13.55222 10.81629 89.343 27.02463 -22.15257 -0 0 7.050609 -15.78418 12.43305 7.105922 4.76319 -20.3982 -3.692889 -84.70689 24.10005 8.898177 0 0 -22.10412 2.301286 7.914427 10.99361
1398.555 102.8163 2875.717 4.482079 -5.034376 45.34634 6.374155 -9.892844 6.668518 -0 17.73982 -0 -1.856617 -6.297631 -7.314186 -2.616188 5.833355 -7.391007 -0 57.30078 -0 -9.211415 -6.600359 14.91133 -0.4531748 0.4553329 4.369752 2.081278 10.32459 -6.927257 2.286316 22.23225 4.874274 2.435899 -18.29191 6.679293 3.941742 -14.37328 11.19764 88.13803 26.60542 -20.14642 -0 0 8.474277 -16.56645 12.14687 7.851955 4.190775 -19.79116 -3.741411 -86.39108 24.24359 11.2574 0 0 -20.12055 1.367469 7.619376 11.98683
1402.775 103.9938 2880.276 5.531724 -5.309121 44.42832 5.678993 -3.992338 6.334074 -0 16.30995 -0 -1.956748 -7.507124 -6.512868 -2.40719 -1.387665 -6.403341 -0 59.62098 -0 -9.014138 -6.284713 15.90023 -0.8514176 1.060268 5.605823 1.616606 10.61064 -5.943317 2.387105 22.72414 4.621075 2.43328 -17.72699 6.417481 3.610016 -15.43609 11.48778 86.9004 26.07243 -17.73433 -0 0 10.47068 -17.62686 11.7683 8.704293 4.014534 -19.30535 -3.653591 -87.86685 24.11507 13.36149 0 0 -18.65818 0.5757684 7.29519 12.63498
1406.867 104.7363 2884.617 6.233795 -5.335067 43.56702 5.011774 1.47696 6.034527 -0 14.48741 -0 -1.799315 -8.864843 -5.667601 -1.731173 -8.692234 -5.292201 -0 57.20135 -0 -8.579583 -6.457045 16.97874 -1.209361 1.463505 6.651631 1.051495 10.75019 -5.017694 2.397158 23.01802 4.416086 2.390316 -17.12869 6.139552 3.135518 -16.72226 11.72438 85.43503 25.62368 -14.99137 -0 0 13.07312 -18.85809 11.43616 9.711153 4.129943 -18.86081 -3.454632 -89.12012 23.75703 15.41079 0 0 -17.6246 -0.01339729 7.054694 13.02689
1410.922 104.8828 2888.791 6.312824 -5.138317 42.76455 4.570344 6.104481 5.769082 -0 12.86332 -0 -1.395442 -10.63609 -4.678649 -0.5553421 -15.4531 -4.074774 -0 50.62696 -0 -7.966147 -6.746874 17.96429 -1.351335 1.651901 7.374871 0.5146827 10.71485 -4.282222 2.259604 23.04014 4.352087 2.339143 -16.65261 5.879003 2.749263 -18.11623 11.91571 83.61563 25.4302 -12.02911 -0 0 16.10666 -20.13293 11.21268 10.88552 4.373813 -18.3752 -3.190955 -90.18378 23.29872 17.4998 0 0 -16.7547 -0.3743509 6.942122 13.26667
